<svg xmlns="http://www.w3.org/2000/svg" xmlns:xlink="http://www.w3.org/1999/xlink" width="22px" height="25px" viewBox="0 0 22 25"><title>Group</title><g id="Page-1" stroke="none" stroke-width="1" fill="none" fill-rule="evenodd"><g id="Icons-Mind---24Px" transform="translate(-927.000000, -4893.000000)" fill="#0B0B0A"><g id="Group" transform="translate(927.000000, 4894.000000)"><path d="M18.555,18.34 L7.555,18.34 C7.349,18.34 7.163,18.21 7.089,18.02 L2.936,7.341 L1,7.341 L1,8.341 C1,8.62 0.776,8.841 0.5,8.841 C0.224,8.841 0,8.62 0,8.341 L0,6.841 C0,6.56 0.224,6.34 0.5,6.34 L3.277,6.34 C3.483,6.34 3.669,6.47 3.743,6.661 L7.896,17.341 L18.21,17.341 L20.53,11.25 L6.791,9.34 C6.518,9.301 6.327,9.041 6.365,8.771 C6.403,8.5 6.66,8.301 6.93,8.351 L21.29,10.351 C21.44,10.37 21.573,10.45 21.651,10.591 C21.729,10.72 21.742,10.881 21.688,11.021 L19.021,18.02 C18.948,18.21 18.762,18.34 18.555,18.34" id="Fill-3197"></path><path d="M10.166,18.9 C8.94,18.9 7.943,19.891 7.943,21.121 C7.943,22.341 8.94,23.341 10.166,23.341 C11.391,23.341 12.387,22.341 12.387,21.121 C12.387,19.891 11.391,18.9 10.166,18.9 L10.166,18.9 Z M10.166,19.9 C10.84,19.9 11.387,20.44 11.387,21.121 C11.387,21.791 10.84,22.341 10.166,22.341 C9.49,22.341 8.943,21.791 8.943,21.121 C8.943,20.44 9.49,19.9 10.166,19.9 L10.166,19.9 Z" id="Fill-3198"></path><path d="M15.943,18.9 C14.718,18.9 13.721,19.891 13.721,21.121 C13.721,22.341 14.718,23.341 15.943,23.341 C17.169,23.341 18.166,22.341 18.166,21.121 C18.166,19.891 17.169,18.9 15.943,18.9 L15.943,18.9 Z M15.943,19.9 C16.617,19.9 17.166,20.44 17.166,21.121 C17.166,21.791 16.617,22.341 15.943,22.341 C15.268,22.341 14.721,21.791 14.721,21.121 C14.721,20.44 15.268,19.9 15.943,19.9 L15.943,19.9 Z" id="Fill-3199"></path><path d="M18,16.341 L9,16.341 C8.724,16.341 8.5,16.12 8.5,15.841 C8.5,15.56 8.724,15.34 9,15.34 L18,15.34 C18.276,15.34 18.5,15.56 18.5,15.841 C18.5,16.12 18.276,16.341 18,16.341" id="Fill-3200"></path><path d="M18,14.341 L9,14.341 C8.724,14.341 8.5,14.12 8.5,13.84 C8.5,13.56 8.724,13.341 9,13.341 L18,13.341 C18.276,13.341 18.5,13.56 18.5,13.84 C18.5,14.12 18.276,14.341 18,14.341" id="Fill-3201"></path><path d="M16,12.34 L9,12.34 C8.724,12.34 8.5,12.121 8.5,11.841 C8.5,11.561 8.724,11.341 9,11.341 L16,11.341 C16.276,11.341 16.5,11.561 16.5,11.841 C16.5,12.121 16.276,12.34 16,12.34" id="Fill-3202"></path><path d="M14.104,7 C12.978,7 12.221,6.33 12.221,5.351 C12.221,5.071 12.444,4.85 12.721,4.85 C12.997,4.85 13.221,5.071 13.221,5.351 C13.221,5.93 13.838,6 14.104,6 C14.368,6 14.984,5.93 14.984,5.351 C14.984,4.99 14.91,4.92 14.103,4.52 L13.659,4.301 C12.855,3.91 12.221,3.591 12.221,2.58 C12.221,1.611 12.995,0.92 14.104,0.92 C15.217,0.92 15.965,1.591 15.965,2.58 C15.965,2.86 15.741,3.08 15.465,3.08 C15.188,3.08 14.965,2.86 14.965,2.58 C14.965,1.99 14.362,1.92 14.104,1.92 C13.838,1.92 13.221,1.99 13.221,2.58 C13.221,2.94 13.295,3.01 14.102,3.41 L14.545,3.631 C15.349,4.02 15.984,4.341 15.984,5.351 C15.984,6.33 15.229,7 14.104,7" id="Fill-3203"></path><path d="M14.221,1.84 C13.944,1.84 13.721,1.621 13.721,1.341 L13.721,0.34 C13.721,0.06 13.944,-0.159 14.221,-0.159 C14.497,-0.159 14.721,0.06 14.721,0.34 L14.721,1.341 C14.721,1.621 14.497,1.84 14.221,1.84" id="Fill-3204"></path><path d="M14.221,7.84 C13.944,7.84 13.721,7.621 13.721,7.341 L13.721,6.5 C13.721,6.22 13.944,6 14.221,6 C14.497,6 14.721,6.22 14.721,6.5 L14.721,7.341 C14.721,7.621 14.497,7.84 14.221,7.84" id="Fill-3205"></path></g></g></g></svg>