<svg xmlns="http://www.w3.org/2000/svg" xmlns:xlink="http://www.w3.org/1999/xlink" width="20px" height="25px" viewBox="0 0 20 25"><title>Fill 3639 + Fill 3640</title><g id="Page-1" stroke="none" stroke-width="1" fill="none" fill-rule="evenodd"><g id="Icons-Mind---24Px" transform="translate(-136.000000, -6597.000000)" fill="#0B0B0A"><g id="Fill-3639-+-Fill-3640" transform="translate(136.000000, 6597.000000)"><path d="M1,4.371 L1,14.341 C1,19.181 6.333,22.54 10,23.331 C13.667,22.54 19,19.181 19,14.341 L19,4.371 C14.393,4.551 12.116,3.44 10,1.521 C7.885,3.44 5.607,4.551 1,4.371 L1,4.371 Z M10,24.341 C9.967,24.341 9.933,24.341 9.9,24.33 C5.908,23.52 0,19.781 0,14.341 L0,3.841 C0,3.701 0.057,3.571 0.157,3.48 C0.257,3.381 0.393,3.33 0.529,3.341 C5.379,3.621 7.495,2.531 9.655,0.48 C9.849,0.291 10.151,0.291 10.345,0.48 C12.505,2.531 14.614,3.621 19.471,3.341 C19.602,3.33 19.743,3.381 19.843,3.48 C19.943,3.571 20,3.701 20,3.841 L20,14.341 C20,19.781 14.092,23.52 10.1,24.33 C10.067,24.341 10.033,24.341 10,24.341 L10,24.341 Z" id="Fill-3639"></path><path d="M9.721,14.361 C9.826,14.361 9.931,14.391 10.019,14.45 L12.521,16.311 L11.581,13.5 C11.509,13.29 11.59,13.05 11.779,12.93 L14.172,11.341 L11.165,11.341 C10.948,11.341 10.756,11.201 10.689,10.991 L9.721,8.02 L8.753,10.991 C8.687,11.201 8.495,11.341 8.278,11.341 L5.262,11.341 L7.665,12.94 C7.854,13.071 7.934,13.311 7.86,13.521 L6.925,16.25 L9.43,14.45 C9.517,14.391 9.619,14.361 9.721,14.361 L9.721,14.361 Z M13.499,18.161 C13.394,18.161 13.289,18.131 13.201,18.06 L9.716,15.48 L6.235,17.98 C6.059,18.1 5.82,18.1 5.646,17.97 C5.471,17.841 5.4,17.611 5.471,17.411 L6.79,13.56 L3.333,11.261 C3.149,11.131 3.067,10.91 3.131,10.7 C3.195,10.49 3.39,10.341 3.61,10.341 L7.915,10.341 L9.246,6.24 C9.379,5.83 10.063,5.83 10.197,6.24 L11.528,10.341 L15.833,10.341 C16.053,10.341 16.248,10.49 16.312,10.7 C16.375,10.91 16.292,11.14 16.108,11.261 L12.651,13.551 L13.973,17.5 C14.042,17.71 13.969,17.94 13.792,18.071 C13.705,18.131 13.602,18.161 13.499,18.161 L13.499,18.161 Z" id="Fill-3640"></path></g></g></g></svg>