<svg xmlns="http://www.w3.org/2000/svg" xmlns:xlink="http://www.w3.org/1999/xlink" width="55px" height="51px" viewBox="0 0 55 51"><title>Group</title><g id="Page-1" stroke="none" stroke-width="1" fill="none" fill-rule="evenodd"><g id="Icons-Mind---60-Px" transform="translate(-2386.000000, -4208.000000)" fill="#0B0B0A"><g id="Group" transform="translate(2386.000000, 4208.000000)"><path d="M22,12.66 L32,12.66 L32,2.66 L22,2.66 L22,12.66 Z M33,14.662 L21,14.662 C20.44,14.662 20,14.22 20,13.66 L20,1.66 C20,1.102 20.44,0.66 21,0.66 L33,0.66 C33.56,0.66 34,1.102 34,1.66 L34,13.66 C34,14.22 33.56,14.662 33,14.662 L33,14.662 Z" id="Fill-630"></path><polygon id="Fill-631" points="6 6.66 20 6.66 20 8.66 6 8.66"></polygon><polygon id="Fill-632" points="34 6.66 48 6.66 48 8.66 34 8.66"></polygon><path d="M50.78,6.16 C49.96,6.16 49.28,6.84 49.28,7.66 C49.28,8.48 49.96,9.16 50.78,9.16 C51.6,9.16 52.28,8.48 52.28,7.66 C52.28,6.84 51.6,6.16 50.78,6.16 L50.78,6.16 Z M50.78,11.16 C48.86,11.16 47.28,9.58 47.28,7.66 C47.28,5.74 48.86,4.162 50.78,4.162 C52.72,4.162 54.28,5.74 54.28,7.66 C54.28,9.58 52.72,11.16 50.78,11.16 L50.78,11.16 Z" id="Fill-633"></path><path d="M3.78,6.16 C2.96,6.16 2.28,6.84 2.28,7.66 C2.28,8.48 2.96,9.16 3.78,9.16 C4.6,9.16 5.28,8.48 5.28,7.66 C5.28,6.84 4.6,6.16 3.78,6.16 L3.78,6.16 Z M3.78,11.16 C1.86,11.16 0.28,9.58 0.28,7.66 C0.28,5.74 1.86,4.162 3.78,4.162 C5.72,4.162 7.28,5.74 7.28,7.66 C7.28,9.58 5.72,11.16 3.78,11.16 L3.78,11.16 Z" id="Fill-634"></path><path d="M52.82,31.38 C52.26,31.38 51.82,30.94 51.82,30.38 C51.82,20.122 44.5,11.38 34.4,9.622 C33.86,9.52 33.5,9 33.58,8.46 C33.68,7.9 34.2,7.542 34.74,7.64 C45.8,9.58 53.82,19.14 53.82,30.38 C53.82,30.94 53.36,31.38 52.82,31.38" id="Fill-635"></path><path d="M1.64,31.38 C1.08,31.38 0.64,30.94 0.64,30.38 C0.64,19.14 8.66,9.58 19.72,7.64 C20.22,7.542 20.78,7.9 20.86,8.46 C20.96,9 20.6,9.52 20.06,9.622 C9.96,11.38 2.64,20.122 2.64,30.38 C2.64,30.94 2.2,31.38 1.64,31.38" id="Fill-636"></path><path d="M34.36,49.94 C34.28,49.94 34.22,49.94 34.14,49.92 C33.6,49.8 33.26,49.26 33.38,48.72 L36.42,34.782 L27,19.32 L17.58,34.782 L20.62,48.72 C20.74,49.26 20.4,49.8 19.86,49.92 C19.34,50.042 18.78,49.702 18.68,49.162 L15.54,34.82 C15.5,34.56 15.54,34.3 15.66,34.08 L26.14,16.9 C26.5,16.3 27.5,16.3 27.86,16.9 L38.34,34.08 C38.46,34.3 38.5,34.56 38.46,34.82 L35.32,49.162 C35.22,49.622 34.82,49.94 34.36,49.94" id="Fill-637"></path><path d="M27,39.66 C26.44,39.66 26,39.22 26,38.662 L26,18.66 C26,18.1 26.44,17.662 27,17.662 C27.56,17.662 28,18.1 28,18.66 L28,38.662 C28,39.22 27.56,39.66 27,39.66" id="Fill-638"></path><path d="M27,40.202 C26.18,40.202 25.5,40.88 25.5,41.702 C25.5,42.52 26.18,43.202 27,43.202 C27.82,43.202 28.5,42.52 28.5,41.702 C28.5,40.88 27.82,40.202 27,40.202 L27,40.202 Z M27,45.202 C25.08,45.202 23.5,43.64 23.5,41.702 C23.5,39.782 25.08,38.202 27,38.202 C28.92,38.202 30.5,39.782 30.5,41.702 C30.5,43.64 28.92,45.202 27,45.202 L27,45.202 Z" id="Fill-639"></path><path d="M38,50.662 L16,50.662 C15.44,50.662 15,50.22 15,49.66 C15,49.102 15.44,48.66 16,48.66 L38,48.66 C38.56,48.66 39,49.102 39,49.66 C39,50.22 38.56,50.662 38,50.662" id="Fill-640"></path></g></g></g></svg>