<svg xmlns="http://www.w3.org/2000/svg" xmlns:xlink="http://www.w3.org/1999/xlink" width="60px" height="51px" viewBox="0 0 60 51"><title>Group</title><g id="Page-1" stroke="none" stroke-width="1" fill="none" fill-rule="evenodd"><g id="Icons-Mind---60-Px" transform="translate(-1784.000000, -2468.000000)" fill="#0B0B0A"><g id="Group" transform="translate(1784.000000, 2468.000000)"><path d="M2,48.66 L24,48.66 L24,2.66 L2,2.66 L2,48.66 Z M25,50.66 L1,50.66 C0.448,50.66 0,50.22 0,49.66 L0,1.66 C0,1.102 0.448,0.66 1,0.66 L25,0.66 C25.552,0.66 26,1.102 26,1.66 L26,49.66 C26,50.22 25.552,50.66 25,50.66 L25,50.66 Z" id="Fill-1138"></path><path d="M6,30.66 L20,30.66 L20,6.66 L6,6.66 L6,30.66 Z M21,32.66 L5,32.66 C4.448,32.66 4,32.22 4,31.66 L4,5.66 C4,5.102 4.448,4.66 5,4.66 L21,4.66 C21.552,4.66 22,5.102 22,5.66 L22,31.66 C22,32.22 21.552,32.66 21,32.66 L21,32.66 Z" id="Fill-1139"></path><path d="M11.976,37.622 C10.46,37.622 9.226,38.86 9.226,40.38 C9.226,41.9 10.46,43.122 11.976,43.122 C13.492,43.122 14.726,41.9 14.726,40.38 C14.726,38.86 13.492,37.622 11.976,37.622 L11.976,37.622 Z M11.976,45.122 C9.358,45.122 7.226,43 7.226,40.38 C7.226,37.762 9.358,35.622 11.976,35.622 C14.596,35.622 16.726,37.762 16.726,40.38 C16.726,43 14.596,45.122 11.976,45.122 L11.976,45.122 Z" id="Fill-1140"></path><path d="M42.188,26.262 C41.946,26.262 41.7,26.16 41.508,25.98 C41.104,25.622 41.08,24.98 41.456,24.58 L44.156,21.66 L41.456,18.74 C41.08,18.34 41.104,17.702 41.508,17.34 C41.912,16.96 42.544,16.98 42.92,17.38 L46.254,20.98 C46.61,21.362 46.61,21.96 46.254,22.34 L42.92,25.942 C42.722,26.14 42.458,26.262 42.188,26.262" id="Fill-1141"></path><path d="M44,22.66 L32,22.66 C31.448,22.66 31,22.22 31,21.66 C31,21.102 31.448,20.66 32,20.66 L44,20.66 C44.552,20.66 45,21.102 45,21.66 C45,22.22 44.552,22.66 44,22.66" id="Fill-1142"></path><path d="M35.312,34.262 C35.044,34.262 34.778,34.14 34.58,33.942 L31.244,30.34 C30.886,29.96 30.886,29.362 31.242,28.98 L34.58,25.38 C34.956,24.98 35.588,24.96 35.992,25.34 C36.396,25.702 36.42,26.34 36.044,26.74 L33.34,29.66 L36.044,32.58 C36.42,32.98 36.396,33.602 35.992,33.98 C35.8,34.16 35.556,34.262 35.312,34.262" id="Fill-1143"></path><path d="M44,30.66 L32,30.66 C31.448,30.66 31,30.22 31,29.66 C31,29.102 31.448,28.66 32,28.66 L44,28.66 C44.552,28.66 45,29.102 45,29.66 C45,30.22 44.552,30.66 44,30.66" id="Fill-1144"></path><path d="M48.22,44.66 L32,44.66 C31.448,44.66 31,44.22 31,43.66 C31,43.102 31.448,42.66 32,42.66 L48.22,42.66 C53.182,42.66 57.218,38.622 57.218,33.68 C57.218,30.48 55.47,27.5 52.654,25.9 C52.32,25.702 52.126,25.34 52.152,24.96 C52.192,24.4 52.218,24.042 52.218,23.68 C52.218,13.202 43.698,4.68 33.222,4.68 C32.822,4.68 32.438,4.702 32.046,4.72 C31.488,4.762 31.022,4.34 30.99,3.782 C30.958,3.22 31.378,2.762 31.93,2.72 C32.36,2.702 32.782,2.68 33.222,2.68 C44.8,2.68 54.218,12.102 54.218,23.68 C54.218,23.96 54.208,24.22 54.19,24.5 C57.306,26.522 59.218,29.98 59.218,33.68 C59.218,39.74 54.286,44.66 48.22,44.66" id="Fill-1145"></path></g></g></g></svg>