<svg xmlns="http://www.w3.org/2000/svg" xmlns:xlink="http://www.w3.org/1999/xlink" width="24px" height="22px" viewBox="0 0 24 22"><title>Group</title><g id="Page-1" stroke="none" stroke-width="1" fill="none" fill-rule="evenodd"><g id="Icons-Mind---24Px" transform="translate(-962.000000, -1983.000000)" fill="#0B0B0A"><g id="Group" transform="translate(962.000000, 1983.000000)"><path d="M1.777,1.34 C1.349,1.34 1,1.69 1,2.12 L1,15.561 C1,15.99 1.349,16.34 1.777,16.34 L22.223,16.34 C22.651,16.34 23,15.99 23,15.561 L23,2.12 C23,1.69 22.651,1.34 22.223,1.34 L1.777,1.34 L1.777,1.34 Z M22.223,17.34 L1.777,17.34 C0.797,17.34 0,16.541 0,15.561 L0,2.12 C0,1.141 0.797,0.34 1.777,0.34 L22.223,0.34 C23.203,0.34 24,1.141 24,2.12 L24,15.561 C24,16.541 23.203,17.34 22.223,17.34 L22.223,17.34 Z" id="Fill-8871"></path><path d="M23,3.34 L1,3.34 C0.724,3.34 0.5,3.12 0.5,2.84 C0.5,2.561 0.724,2.34 1,2.34 L23,2.34 C23.276,2.34 23.5,2.561 23.5,2.84 C23.5,3.12 23.276,3.34 23,3.34" id="Fill-8872"></path><path d="M23,14.34 L1,14.34 C0.724,14.34 0.5,14.12 0.5,13.84 C0.5,13.561 0.724,13.34 1,13.34 L23,13.34 C23.276,13.34 23.5,13.561 23.5,13.84 C23.5,14.12 23.276,14.34 23,14.34" id="Fill-8873"></path><path d="M9.283,20.34 L14.012,20.34 L13.373,17.34 L9.922,17.34 L9.283,20.34 L9.283,20.34 Z M14.648,21.34 L14.629,21.34 L8.666,21.34 C8.515,21.34 8.372,21.271 8.277,21.161 C8.183,21.041 8.146,20.88 8.177,20.74 L9.028,16.74 C9.078,16.511 9.281,16.34 9.518,16.34 L13.777,16.34 C14.014,16.34 14.217,16.511 14.267,16.74 L15.09,20.61 C15.128,20.681 15.148,20.76 15.148,20.84 C15.148,21.12 14.925,21.34 14.648,21.34 L14.648,21.34 Z" id="Fill-8874"></path><path d="M16,21.34 L8,21.34 C7.724,21.34 7.5,21.12 7.5,20.84 C7.5,20.561 7.724,20.34 8,20.34 L16,20.34 C16.276,20.34 16.5,20.561 16.5,20.84 C16.5,21.12 16.276,21.34 16,21.34" id="Fill-8875"></path></g></g></g></svg>