<svg xmlns="http://www.w3.org/2000/svg" xmlns:xlink="http://www.w3.org/1999/xlink" width="52px" height="61px" viewBox="0 0 52 61"><title>Group</title><g id="Page-1" stroke="none" stroke-width="1" fill="none" fill-rule="evenodd"><g id="Icons-Mind---60-Px" transform="translate(-1788.000000, -4860.000000)" fill="#0B0B0A"><g id="Group" transform="translate(1788.000000, 4860.000000)"><path d="M4.75,2.66 C3.234,2.66 2,3.902 2,5.42 L2,55.92 C2,57.42 3.234,58.662 4.75,58.662 L47.25,58.662 C48.766,58.662 50,57.42 50,55.92 L50,5.42 C50,3.902 48.766,2.66 47.25,2.66 L4.75,2.66 L4.75,2.66 Z M47.25,60.66 L4.75,60.66 C2.13,60.66 0,58.522 0,55.92 L0,5.42 C0,2.8 2.13,0.66 4.75,0.66 L47.25,0.66 C49.87,0.66 52,2.8 52,5.42 L52,55.92 C52,58.522 49.87,60.66 47.25,60.66 L47.25,60.66 Z" id="Fill-362"></path><path d="M28,54.66 L22,54.66 C21.448,54.66 21,54.22 21,53.66 C21,53.1 21.448,52.662 22,52.662 L28,52.662 C28.552,52.662 29,53.1 29,53.66 C29,54.22 28.552,54.66 28,54.66" id="Fill-363"></path><path d="M8,48.66 L44,48.66 L44,8.66 L8,8.66 L8,48.66 Z M45,50.66 L7,50.66 C6.448,50.66 6,50.22 6,49.662 L6,7.662 C6,7.1 6.448,6.66 7,6.66 L45,6.66 C45.552,6.66 46,7.1 46,7.662 L46,49.662 C46,50.22 45.552,50.66 45,50.66 L45,50.66 Z" id="Fill-364"></path><path d="M38,14.66 L12,14.66 C11.448,14.66 11,14.22 11,13.662 C11,13.1 11.448,12.66 12,12.66 L38,12.66 C38.552,12.66 39,13.1 39,13.662 C39,14.22 38.552,14.66 38,14.66" id="Fill-365"></path><path d="M38,22.662 L12,22.662 C11.448,22.662 11,22.22 11,21.66 C11,21.1 11.448,20.66 12,20.66 L38,20.66 C38.552,20.66 39,21.1 39,21.66 C39,22.22 38.552,22.662 38,22.662" id="Fill-366"></path><path d="M38,30.66 L12,30.66 C11.448,30.66 11,30.22 11,29.66 C11,29.1 11.448,28.662 12,28.662 L38,28.662 C38.552,28.662 39,29.1 39,29.66 C39,30.22 38.552,30.66 38,30.66" id="Fill-367"></path><path d="M26,38.66 L12,38.66 C11.448,38.66 11,38.22 11,37.662 C11,37.1 11.448,36.66 12,36.66 L26,36.66 C26.552,36.66 27,37.1 27,37.662 C27,38.22 26.552,38.66 26,38.66" id="Fill-368"></path></g></g></g></svg>