<svg xmlns="http://www.w3.org/2000/svg" xmlns:xlink="http://www.w3.org/1999/xlink" width="60px" height="51px" viewBox="0 0 60 51"><title>Group</title><g id="Page-1" stroke="none" stroke-width="1" fill="none" fill-rule="evenodd"><g id="Icons-Mind---60-Px" transform="translate(-2146.000000, -18366.000000)" fill="#0B0B0A"><g id="Group" transform="translate(2146.000000, 18366.000000)"><path d="M2,48.66 L58,48.66 L58,2.66 L2,2.66 L2,48.66 Z M59,50.662 L1,50.662 C0.44,50.662 0,50.222 0,49.662 L0,1.662 C0,1.1 0.44,0.66 1,0.66 L59,0.66 C59.56,0.66 60,1.1 60,1.662 L60,49.662 C60,50.222 59.56,50.662 59,50.662 L59,50.662 Z" id="Fill-8598"></path><path d="M58,12.66 L2,12.66 C1.44,12.66 1,12.222 1,11.662 C1,11.1 1.44,10.662 2,10.662 L58,10.662 C58.56,10.662 59,11.1 59,11.662 C59,12.222 58.56,12.66 58,12.66" id="Fill-8599"></path><path d="M7.98,7.162 C7.98,7.86 7.42,8.42 6.72,8.42 C6.04,8.42 5.48,7.86 5.48,7.162 C5.48,6.462 6.04,5.922 6.72,5.922 C7.42,5.922 7.98,6.462 7.98,7.162" id="Fill-8600"></path><path d="M12.98,7.162 C12.98,7.86 12.42,8.42 11.72,8.42 C11.04,8.42 10.48,7.86 10.48,7.162 C10.48,6.462 11.04,5.922 11.72,5.922 C12.42,5.922 12.98,6.462 12.98,7.162" id="Fill-8601"></path><path d="M17.98,7.162 C17.98,7.86 17.42,8.42 16.72,8.42 C16.04,8.42 15.48,7.86 15.48,7.162 C15.48,6.462 16.04,5.922 16.72,5.922 C17.42,5.922 17.98,6.462 17.98,7.162" id="Fill-8602"></path><path d="M36.62,31.08 C36.08,31.08 35.62,30.642 35.62,30.082 L35.62,28.2 C35.62,27.66 36.08,27.2 36.62,27.2 C37.18,27.2 37.62,27.66 37.62,28.2 L37.62,30.082 C37.62,30.642 37.18,31.08 36.62,31.08" id="Fill-8603"></path><path d="M36.62,44.622 C36.08,44.622 35.62,44.16 35.62,43.622 L35.62,41.742 C35.62,41.18 36.08,40.74 36.62,40.74 C37.18,40.74 37.62,41.18 37.62,41.742 L37.62,43.622 C37.62,44.16 37.18,44.622 36.62,44.622" id="Fill-8604"></path><path d="M30.8,36.92 L28.92,36.92 C28.36,36.92 27.92,36.462 27.92,35.922 C27.92,35.362 28.36,34.92 28.92,34.92 L30.8,34.92 C31.34,34.92 31.8,35.362 31.8,35.922 C31.8,36.462 31.34,36.92 30.8,36.92" id="Fill-8605"></path><path d="M44.34,36.92 L42.46,36.92 C41.9,36.92 41.46,36.462 41.46,35.922 C41.46,35.362 41.9,34.92 42.46,34.92 L44.34,34.92 C44.88,34.92 45.34,35.362 45.34,35.922 C45.34,36.462 44.88,36.92 44.34,36.92" id="Fill-8606"></path><path d="M32.5,32.782 C32.24,32.782 32,32.7 31.8,32.502 L30.48,31.162 C30.08,30.78 30.08,30.14 30.48,29.76 C30.86,29.362 31.5,29.362 31.88,29.76 L33.22,31.08 C33.6,31.482 33.6,32.1 33.22,32.502 C33.02,32.7 32.76,32.782 32.5,32.782" id="Fill-8607"></path><path d="M42.08,42.36 C41.82,42.36 41.56,42.26 41.36,42.062 L40.04,40.74 C39.66,40.34 39.66,39.722 40.04,39.322 C40.44,38.94 41.06,38.94 41.46,39.322 L42.78,40.662 C43.18,41.042 43.18,41.68 42.78,42.062 C42.58,42.26 42.34,42.36 42.08,42.36" id="Fill-8608"></path><path d="M31.18,42.36 C30.92,42.36 30.66,42.26 30.48,42.062 C30.08,41.68 30.08,41.042 30.48,40.662 L31.8,39.322 C32.18,38.94 32.82,38.94 33.22,39.322 C33.6,39.722 33.6,40.34 33.22,40.74 L31.88,42.062 C31.68,42.26 31.44,42.36 31.18,42.36" id="Fill-8609"></path><path d="M40.74,32.782 C40.5,32.782 40.24,32.7 40.04,32.502 C39.66,32.1 39.66,31.482 40.04,31.08 L41.36,29.76 C41.76,29.362 42.4,29.362 42.78,29.76 C43.18,30.14 43.18,30.78 42.78,31.162 L41.46,32.502 C41.26,32.7 41,32.782 40.74,32.782" id="Fill-8610"></path><path d="M36.62,31.08 C34.08,31.08 32,33.162 32,35.7 C32,38.26 34.08,40.32 36.62,40.32 C39.18,40.32 41.26,38.26 41.26,35.7 C41.26,33.162 39.18,31.08 36.62,31.08 L36.62,31.08 Z M36.62,42.322 C32.98,42.322 30,39.36 30,35.7 C30,32.06 32.98,29.082 36.62,29.082 C40.28,29.082 43.26,32.06 43.26,35.7 C43.26,39.36 40.28,42.322 36.62,42.322 L36.62,42.322 Z" id="Fill-8611"></path><path d="M29.12,20.462 C28.58,20.462 28.12,20 28.12,19.46 L28.12,18.2 C28.12,17.662 28.58,17.2 29.12,17.2 C29.68,17.2 30.12,17.662 30.12,18.2 L30.12,19.46 C30.12,20 29.68,20.462 29.12,20.462" id="Fill-8612"></path><path d="M29.12,29.2 C28.58,29.2 28.12,28.76 28.12,28.2 L28.12,26.96 C28.12,26.4 28.58,25.962 29.12,25.962 C29.68,25.962 30.12,26.4 30.12,26.96 L30.12,28.2 C30.12,28.76 29.68,29.2 29.12,29.2" id="Fill-8613"></path><path d="M25.38,24.2 L24.12,24.2 C23.58,24.2 23.12,23.76 23.12,23.2 C23.12,22.662 23.58,22.2 24.12,22.2 L25.38,22.2 C25.92,22.2 26.38,22.662 26.38,23.2 C26.38,23.76 25.92,24.2 25.38,24.2" id="Fill-8614"></path><path d="M34.12,24.2 L32.88,24.2 C32.32,24.2 31.88,23.76 31.88,23.2 C31.88,22.662 32.32,22.2 32.88,22.2 L34.12,22.2 C34.68,22.2 35.12,22.662 35.12,23.2 C35.12,23.76 34.68,24.2 34.12,24.2" id="Fill-8615"></path><path d="M26.48,21.56 C26.22,21.56 25.96,21.462 25.76,21.26 L24.88,20.382 C24.5,19.98 24.5,19.36 24.88,18.962 C25.28,18.582 25.9,18.582 26.3,18.962 L27.18,19.84 C27.58,20.242 27.58,20.882 27.18,21.26 C26.98,21.462 26.72,21.56 26.48,21.56" id="Fill-8616"></path><path d="M32.66,27.742 C32.4,27.742 32.14,27.642 31.96,27.44 L31.08,26.562 C30.68,26.16 30.68,25.542 31.08,25.142 C31.46,24.76 32.1,24.76 32.48,25.142 L33.36,26.042 C33.76,26.42 33.76,27.062 33.36,27.44 C33.18,27.642 32.92,27.742 32.66,27.742" id="Fill-8617"></path><path d="M25.58,27.742 C25.34,27.742 25.08,27.642 24.88,27.44 C24.5,27.062 24.5,26.42 24.88,26.042 L25.76,25.142 C26.16,24.76 26.78,24.76 27.18,25.142 C27.58,25.542 27.58,26.16 27.18,26.562 L26.3,27.44 C26.1,27.642 25.84,27.742 25.58,27.742" id="Fill-8618"></path><path d="M31.78,21.56 C31.52,21.56 31.26,21.462 31.08,21.26 C30.68,20.882 30.68,20.242 31.08,19.84 L31.96,18.962 C32.34,18.582 32.98,18.582 33.36,18.962 C33.76,19.36 33.76,19.98 33.36,20.382 L32.48,21.26 C32.28,21.462 32.04,21.56 31.78,21.56" id="Fill-8619"></path><path d="M29.12,20.462 C27.6,20.462 26.38,21.68 26.38,23.2 C26.38,24.722 27.6,25.962 29.12,25.962 C30.64,25.962 31.88,24.722 31.88,23.2 C31.88,21.68 30.64,20.462 29.12,20.462 L29.12,20.462 Z M29.12,27.962 C26.5,27.962 24.38,25.822 24.38,23.2 C24.38,20.58 26.5,18.462 29.12,18.462 C31.74,18.462 33.88,20.58 33.88,23.2 C33.88,25.822 31.74,27.962 29.12,27.962 L29.12,27.962 Z" id="Fill-8620"></path><path d="M21.62,35.462 C21.08,35.462 20.62,35 20.62,34.46 L20.62,33.2 C20.62,32.662 21.08,32.2 21.62,32.2 C22.18,32.2 22.62,32.662 22.62,33.2 L22.62,34.46 C22.62,35 22.18,35.462 21.62,35.462" id="Fill-8621"></path><path d="M21.62,44.2 C21.08,44.2 20.62,43.76 20.62,43.2 L20.62,41.96 C20.62,41.4 21.08,40.962 21.62,40.962 C22.18,40.962 22.62,41.4 22.62,41.96 L22.62,43.2 C22.62,43.76 22.18,44.2 21.62,44.2" id="Fill-8622"></path><path d="M17.88,39.2 L16.62,39.2 C16.08,39.2 15.62,38.76 15.62,38.2 C15.62,37.662 16.08,37.2 16.62,37.2 L17.88,37.2 C18.42,37.2 18.88,37.662 18.88,38.2 C18.88,38.76 18.42,39.2 17.88,39.2" id="Fill-8623"></path><path d="M26.62,39.2 L25.38,39.2 C24.82,39.2 24.38,38.76 24.38,38.2 C24.38,37.662 24.82,37.2 25.38,37.2 L26.62,37.2 C27.18,37.2 27.62,37.662 27.62,38.2 C27.62,38.76 27.18,39.2 26.62,39.2" id="Fill-8624"></path><path d="M18.98,36.56 C18.72,36.56 18.46,36.462 18.26,36.26 L17.38,35.382 C17,34.98 17,34.36 17.38,33.962 C17.78,33.582 18.4,33.582 18.8,33.962 L19.68,34.84 C20.08,35.242 20.08,35.882 19.68,36.26 C19.48,36.462 19.22,36.56 18.98,36.56" id="Fill-8625"></path><path d="M25.16,42.742 C24.9,42.742 24.64,42.642 24.46,42.44 L23.58,41.562 C23.18,41.16 23.18,40.542 23.58,40.142 C23.96,39.76 24.6,39.76 24.98,40.142 L25.86,41.042 C26.26,41.42 26.26,42.062 25.86,42.44 C25.68,42.642 25.42,42.742 25.16,42.742" id="Fill-8626"></path><path d="M18.08,42.742 C17.84,42.742 17.58,42.642 17.38,42.44 C17,42.062 17,41.42 17.38,41.042 L18.26,40.142 C18.66,39.76 19.28,39.76 19.68,40.142 C20.08,40.542 20.08,41.16 19.68,41.562 L18.8,42.44 C18.6,42.642 18.34,42.742 18.08,42.742" id="Fill-8627"></path><path d="M24.28,36.56 C24.02,36.56 23.76,36.462 23.58,36.26 C23.18,35.882 23.18,35.242 23.58,34.84 L24.46,33.962 C24.84,33.582 25.48,33.582 25.86,33.962 C26.26,34.36 26.26,34.98 25.86,35.382 L24.98,36.26 C24.78,36.462 24.54,36.56 24.28,36.56" id="Fill-8628"></path><path d="M21.62,35.462 C20.1,35.462 18.88,36.68 18.88,38.2 C18.88,39.722 20.1,40.962 21.62,40.962 C23.14,40.962 24.38,39.722 24.38,38.2 C24.38,36.68 23.14,35.462 21.62,35.462 L21.62,35.462 Z M21.62,42.962 C19,42.962 16.88,40.822 16.88,38.2 C16.88,35.58 19,33.462 21.62,33.462 C24.24,33.462 26.38,35.58 26.38,38.2 C26.38,40.822 24.24,42.962 21.62,42.962 L21.62,42.962 Z" id="Fill-8629"></path></g></g></g></svg>