<svg xmlns="http://www.w3.org/2000/svg" xmlns:xlink="http://www.w3.org/1999/xlink" width="58px" height="51px" viewBox="0 0 58 51"><title>Group</title><g id="Page-1" stroke="none" stroke-width="1" fill="none" fill-rule="evenodd"><g id="Icons-Mind---60-Px" transform="translate(-1546.000000, -18252.000000)" fill="#0B0B0A"><g id="Group" transform="translate(1546.000000, 18252.000000)"><path d="M2,48.66 L48,48.66 L48,10.66 L2,10.66 L2,48.66 Z M49,50.662 L1,50.662 C0.448,50.662 0,50.222 0,49.662 L0,9.66 C0,9.1 0.448,8.662 1,8.662 L49,8.662 C49.552,8.662 50,9.1 50,9.66 L50,49.662 C50,50.222 49.552,50.662 49,50.662 L49,50.662 Z" id="Fill-8734"></path><path d="M53,44.662 L50,44.662 C49.448,44.662 49,44.222 49,43.662 C49,43.1 49.448,42.66 50,42.66 L52,42.66 L52,6.66 L8,6.66 L8,8.662 C8,9.222 7.552,9.66 7,9.66 C6.448,9.66 6,9.222 6,8.662 L6,5.662 C6,5.1 6.448,4.662 7,4.662 L53,4.662 C53.552,4.662 54,5.1 54,5.662 L54,43.662 C54,44.222 53.552,44.662 53,44.662" id="Fill-8735"></path><path d="M57,40.662 L54,40.662 C53.448,40.662 53,40.22 53,39.66 C53,39.1 53.448,38.662 54,38.662 L56,38.662 L56,2.662 L12,2.662 L12,4.662 C12,5.222 11.552,5.662 11,5.662 C10.448,5.662 10,5.222 10,4.662 L10,1.662 C10,1.1 10.448,0.66 11,0.66 L57,0.66 C57.552,0.66 58,1.1 58,1.662 L58,39.66 C58,40.22 57.552,40.662 57,40.662" id="Fill-8736"></path><path d="M48,20.662 L2,20.662 C1.448,20.662 1,20.222 1,19.662 C1,19.1 1.448,18.66 2,18.66 L48,18.66 C48.552,18.66 49,19.1 49,19.662 C49,20.222 48.552,20.662 48,20.662" id="Fill-8737"></path></g></g></g></svg>