<svg xmlns="http://www.w3.org/2000/svg" xmlns:xlink="http://www.w3.org/1999/xlink" width="60px" height="62px" viewBox="0 0 60 62"><title>Group</title><g id="Page-1" stroke="none" stroke-width="1" fill="none" fill-rule="evenodd"><g id="Icons-Mind---60-Px" transform="translate(-2028.000000, -14472.000000)" fill="#0B0B0A"><g id="Group" transform="translate(2028.000000, 14472.000000)"><path d="M2,26.66 L8.878,26.66 C9.206,26.66 9.51,26.82 9.698,27.08 C9.884,27.36 9.93,27.7 9.82,28 L7.786,33.642 L18.092,26.82 C18.256,26.72 18.448,26.66 18.642,26.66 L40,26.66 L40,2.66 L2,2.66 L2,26.66 L2,26.66 Z M5.82,37.12 C5.602,37.12 5.382,37.062 5.202,36.92 C4.864,36.642 4.732,36.2 4.878,35.78 L7.456,28.66 L1,28.66 C0.448,28.66 0,28.22 0,27.662 L0,1.66 C0,1.102 0.448,0.662 1,0.662 L41,0.662 C41.56,0.662 42,1.102 42,1.66 L42,27.662 C42,28.22 41.56,28.66 41,28.66 L18.944,28.66 L6.372,36.96 C6.204,37.082 6.012,37.12 5.82,37.12 L5.82,37.12 Z" id="Fill-4600"></path><path d="M55.14,61.12 C54.94,61.12 54.76,61.082 54.58,60.96 L42.02,52.66 L21,52.66 C20.448,52.66 20,52.22 20,51.662 L20,28.66 C20,28.102 20.448,27.662 21,27.662 C21.552,27.662 22,28.102 22,28.66 L22,50.66 L42.32,50.66 C42.5,50.66 42.7,50.72 42.86,50.82 L53.18,57.642 L51.14,52 C51.02,51.7 51.08,51.36 51.26,51.08 C51.44,50.82 51.76,50.66 52.08,50.66 L58,50.66 L58,24.662 L42,24.662 C41.44,24.662 41,24.22 41,23.66 C41,23.102 41.44,22.66 42,22.66 L59,22.66 C59.56,22.66 60,23.102 60,23.66 L60,51.662 C60,52.22 59.56,52.66 59,52.66 L53.5,52.66 L56.08,59.78 C56.22,60.2 56.1,60.642 55.76,60.92 C55.58,61.062 55.36,61.12 55.14,61.12" id="Fill-4601"></path><path d="M36,10.66 L8,10.66 C7.448,10.66 7,10.22 7,9.662 C7,9.102 7.448,8.66 8,8.66 L36,8.66 C36.552,8.66 37,9.102 37,9.662 C37,10.22 36.552,10.66 36,10.66" id="Fill-4602"></path><path d="M36,14.66 L8,14.66 C7.448,14.66 7,14.22 7,13.66 C7,13.102 7.448,12.662 8,12.662 L36,12.662 C36.552,12.662 37,13.102 37,13.66 C37,14.22 36.552,14.66 36,14.66" id="Fill-4603"></path><path d="M22,18.662 L8,18.662 C7.448,18.662 7,18.22 7,17.66 C7,17.102 7.448,16.66 8,16.66 L22,16.66 C22.552,16.66 23,17.102 23,17.66 C23,18.22 22.552,18.662 22,18.662" id="Fill-4604"></path><path d="M52,36.662 L28,36.662 C27.448,36.662 27,36.22 27,35.66 C27,35.102 27.448,34.66 28,34.66 L52,34.66 C52.56,34.66 53,35.102 53,35.66 C53,36.22 52.56,36.662 52,36.662" id="Fill-4605"></path><path d="M52,40.66 L28,40.66 C27.448,40.66 27,40.22 27,39.662 C27,39.102 27.448,38.66 28,38.66 L52,38.66 C52.56,38.66 53,39.102 53,39.662 C53,40.22 52.56,40.66 52,40.66" id="Fill-4606"></path><path d="M42,44.66 L28,44.66 C27.448,44.66 27,44.22 27,43.66 C27,43.102 27.448,42.662 28,42.662 L42,42.662 C42.56,42.662 43,43.102 43,43.66 C43,44.22 42.56,44.66 42,44.66" id="Fill-4607"></path></g></g></g></svg>