<svg xmlns="http://www.w3.org/2000/svg" xmlns:xlink="http://www.w3.org/1999/xlink" width="24px" height="18px" viewBox="0 0 24 18"><title>Group</title><g id="Page-1" stroke="none" stroke-width="1" fill="none" fill-rule="evenodd"><g id="Icons-Mind---24Px" transform="translate(-408.000000, -2319.000000)" fill="#0B0B0A"><g id="Group" transform="translate(408.000000, 2319.000000)"><path d="M4,1.34 C2.346,1.34 1,2.69 1,4.34 L1,13.34 C1,14.991 2.346,16.34 4,16.34 L20,16.34 C21.654,16.34 23,14.991 23,13.34 L23,4.34 C23,2.69 21.654,1.34 20,1.34 L4,1.34 L4,1.34 Z M20,17.34 L4,17.34 C1.794,17.34 0,15.55 0,13.34 L0,4.34 C0,2.141 1.794,0.34 4,0.34 L20,0.34 C22.206,0.34 24,2.141 24,4.34 L24,13.34 C24,15.55 22.206,17.34 20,17.34 L20,17.34 Z" id="Fill-10654"></path><polygon id="Fill-10655" points="1 4.34 23 4.34 23 6.34 1 6.34"></polygon><polygon id="Fill-10656" points="3 9.34 7 9.34 7 10.34 3 10.34"></polygon><polygon id="Fill-10657" points="3 11.34 11 11.34 11 12.34 3 12.34"></polygon></g></g></g></svg>