<svg xmlns="http://www.w3.org/2000/svg" xmlns:xlink="http://www.w3.org/1999/xlink" width="24px" height="25px" viewBox="0 0 24 25"><title>Group</title><g id="Page-1" stroke="none" stroke-width="1" fill="none" fill-rule="evenodd"><g id="Icons-Mind---24Px" transform="translate(-626.000000, -1981.000000)" fill="#0B0B0A"><g id="Group" transform="translate(626.000000, 1981.000000)"><path d="M14,1.34 C13.448,1.34 13,1.791 13,2.34 L13,19.34 C13,19.891 13.448,20.34 14,20.34 L22,20.34 C22.552,20.34 23,19.891 23,19.34 L23,2.34 C23,1.791 22.552,1.34 22,1.34 L14,1.34 L14,1.34 Z M22,21.34 L14,21.34 C12.897,21.34 12,20.44 12,19.34 L12,2.34 C12,1.24 12.897,0.34 14,0.34 L22,0.34 C23.103,0.34 24,1.24 24,2.34 L24,19.34 C24,20.44 23.103,21.34 22,21.34 L22,21.34 Z" id="Fill-8906"></path><path d="M23,3.34 L13,3.34 C12.724,3.34 12.5,3.121 12.5,2.84 C12.5,2.561 12.724,2.34 13,2.34 L23,2.34 C23.276,2.34 23.5,2.561 23.5,2.84 C23.5,3.121 23.276,3.34 23,3.34" id="Fill-8907"></path><path d="M23,18.34 L13,18.34 C12.724,18.34 12.5,18.121 12.5,17.84 C12.5,17.561 12.724,17.34 13,17.34 L23,17.34 C23.276,17.34 23.5,17.561 23.5,17.84 C23.5,18.121 23.276,18.34 23,18.34" id="Fill-8908"></path><path d="M18.721,24.34 L1.721,24.34 C0.691,24.34 0,23.541 0,22.34 L0,14.34 C0,13.141 0.691,12.34 1.721,12.34 L12,12.34 C12.276,12.34 12.5,12.561 12.5,12.84 C12.5,13.12 12.276,13.34 12,13.34 L1.721,13.34 C1.094,13.34 1,13.971 1,14.34 L1,22.34 C1,22.71 1.094,23.34 1.721,23.34 L18.721,23.34 C19.284,23.34 20,22.87 20,22.34 L20,21.34 C20,21.061 20.224,20.84 20.5,20.84 C20.776,20.84 21,21.061 21,21.34 L21,22.34 C21,23.49 19.797,24.34 18.721,24.34" id="Fill-8909"></path><path d="M2.5,23.84 C2.224,23.84 2,23.62 2,23.34 L2,13.34 C2,13.061 2.224,12.84 2.5,12.84 C2.776,12.84 3,13.061 3,13.34 L3,23.34 C3,23.62 2.776,23.84 2.5,23.84" id="Fill-8910"></path><path d="M17.5,23.84 C17.224,23.84 17,23.62 17,23.34 L17,21.34 C17,21.061 17.224,20.84 17.5,20.84 C17.776,20.84 18,21.061 18,21.34 L18,23.34 C18,23.62 17.776,23.84 17.5,23.84" id="Fill-8911"></path></g></g></g></svg>