<svg xmlns="http://www.w3.org/2000/svg" xmlns:xlink="http://www.w3.org/1999/xlink" width="33px" height="22px" viewBox="0 0 33 22"><title>Group</title><g id="Page-1" stroke="none" stroke-width="1" fill="none" fill-rule="evenodd"><g id="Icons-Mind---24Px" transform="translate(-623.000000, -2080.000000)" fill="#0B0B0A"><g id="Group" transform="translate(623.000000, 2080.000000)"><path d="M18,17.34 L1.498,17.34 C0.588,17.34 0,16.641 0,15.561 L0,2.12 C0,1.041 0.588,0.34 1.498,0.34 L21.943,0.34 C22.914,0.34 24,1.101 24,2.12 L24,5.34 C24,5.62 23.776,5.84 23.5,5.84 C23.224,5.84 23,5.62 23,5.34 L23,2.12 C23,1.75 22.438,1.34 21.943,1.34 L1.498,1.34 C1.375,1.34 1,1.34 1,2.12 L1,15.561 C1,16.34 1.375,16.34 1.498,16.34 L18,16.34 C18.276,16.34 18.5,16.561 18.5,16.84 C18.5,17.12 18.276,17.34 18,17.34" id="Fill-8800"></path><path d="M23,3.34 L1,3.34 C0.724,3.34 0.5,3.121 0.5,2.84 C0.5,2.561 0.724,2.34 1,2.34 L23,2.34 C23.276,2.34 23.5,2.561 23.5,2.84 C23.5,3.121 23.276,3.34 23,3.34" id="Fill-8801"></path><path d="M18,14.34 L1,14.34 C0.724,14.34 0.5,14.12 0.5,13.84 C0.5,13.561 0.724,13.34 1,13.34 L18,13.34 C18.276,13.34 18.5,13.561 18.5,13.84 C18.5,14.12 18.276,14.34 18,14.34" id="Fill-8802"></path><path d="M9.283,20.34 L14.012,20.34 L13.373,17.34 L9.922,17.34 L9.283,20.34 L9.283,20.34 Z M14.648,21.34 L14.629,21.34 L8.666,21.34 C8.515,21.34 8.372,21.271 8.277,21.16 C8.183,21.04 8.146,20.88 8.177,20.741 L9.028,16.74 C9.078,16.511 9.281,16.34 9.518,16.34 L13.777,16.34 C14.014,16.34 14.217,16.511 14.267,16.74 L15.09,20.61 C15.128,20.68 15.148,20.761 15.148,20.84 C15.148,21.121 14.925,21.34 14.648,21.34 L14.648,21.34 Z" id="Fill-8803"></path><path d="M16,21.34 L8,21.34 C7.724,21.34 7.5,21.121 7.5,20.84 C7.5,20.561 7.724,20.34 8,20.34 L16,20.34 C16.276,20.34 16.5,20.561 16.5,20.84 C16.5,21.121 16.276,21.34 16,21.34" id="Fill-8804"></path><path d="M19.5,6.34 C19.225,6.34 19,6.561 19,6.84 L19,19.84 C19,20.12 19.225,20.34 19.5,20.34 L31.5,20.34 C31.775,20.34 32,20.12 32,19.84 L32,6.84 C32,6.561 31.775,6.34 31.5,6.34 L19.5,6.34 L19.5,6.34 Z M31.5,21.34 L19.5,21.34 C18.673,21.34 18,20.67 18,19.84 L18,6.84 C18,6.011 18.673,5.34 19.5,5.34 L31.5,5.34 C32.327,5.34 33,6.011 33,6.84 L33,19.84 C33,20.67 32.327,21.34 31.5,21.34 L31.5,21.34 Z" id="Fill-8805"></path><path d="M21,16.34 L30,16.34 L30,8.34 L21,8.34 L21,16.34 Z M30.5,17.34 L20.5,17.34 C20.224,17.34 20,17.12 20,16.84 L20,7.84 C20,7.561 20.224,7.34 20.5,7.34 L30.5,7.34 C30.776,7.34 31,7.561 31,7.84 L31,16.84 C31,17.12 30.776,17.34 30.5,17.34 L30.5,17.34 Z" id="Fill-8806"></path><path d="M26,19.34 L25,19.34 C24.724,19.34 24.5,19.12 24.5,18.84 C24.5,18.561 24.724,18.34 25,18.34 L26,18.34 C26.276,18.34 26.5,18.561 26.5,18.84 C26.5,19.12 26.276,19.34 26,19.34" id="Fill-8807"></path></g></g></g></svg>